# xmcd
#
# Track frame offsets: 
#        182
#        12917
#        25560
#        38665
#        52327
#        65085
#        79587
#        92117
#        106910
#        121690
#        134147
#        146882
#        160000
#        173120
#
# Disc length: 2511 seconds
#
# Revision: 0
# Processed by: cddbd v1.5.1PL0 Copyright (c) Steve Scherf et al.
# Submitted via: ExactAudioCopy v0.95a5
#
DISCID=ba09cd0e
DTITLE=Hot Lips Page - Hot Lips Page - 1938-1940
DYEAR=1989
DGENRE=
TTITLE0=Good Old Bosom Bread
TTITLE1=He's Pulling His Wiskers
TTITLE2=Down On The Levee
TTITLE3=Old Man Ben
TTITLE4=I Would Do Anything For You
TTITLE5=I Ain't Got Nobody
TTITLE6=A Porter's Love Song To A Chambermaid
TTITLE7=Gone With The Gun
TTITLE8=Walk It To Me
TTITLE9=It Won't Be Here Long
TTITLE10=Lafayette
TTITLE11=South
TTITLE12=Harlem Rhumbain' The Blues
TTITLE13=No Matter Where You Are (When Evening Draws Her Curtain)
EXTD=
EXTT0=
EXTT1=
EXTT2=
EXTT3=
EXTT4=
EXTT5=
EXTT6=
EXTT7=
EXTT8=
EXTT9=
EXTT10=
EXTT11=
EXTT12=
EXTT13=
PLAYORDER=
